<svg width="378" height="378" xmlns="http://www.w3.org/2000/svg" xmlns:xlink="http://www.w3.org/1999/xlink" overflow="hidden"><g><rect x="0" y="0" width="378" height="378" fill="#FFFFFF"/><path d="M189 9.98088e-15 352 81.4998 352 296.5 189 378 26 296.5 26 81.4998Z" stroke="#042433" stroke-width="2" stroke-miterlimit="8" fill="none" fill-rule="evenodd"/><path d="M263.754 285.821 189.389 324 73.0001 265.81 73.0001 112.19 189.389 53.9999 305.778 112.19 306 265.366" stroke="#042433" stroke-width="2" stroke-miterlimit="8" fill="none" fill-rule="evenodd"/><path d="M263.811 341 264 152.37 189.406 189.197 115 152" stroke="#042433" stroke-width="2" stroke-miterlimit="8" fill="none" fill-rule="evenodd"/><path d="M329 70.9999 352 82.5 352 112.5 329 124 306 112.5 306 82.5Z" stroke="#042433" stroke-width="2" stroke-miterlimit="8" fill="none" fill-rule="evenodd"/><path d="M339.017 110.627 328.484 116 312 107.81 312 86.1896 328.484 77.9999 344.969 86.1896 345 107.748" stroke="#042433" stroke-width="2" stroke-miterlimit="8" fill="none" fill-rule="evenodd"/><path d="M338.973 119 339 92.0528 328.487 97.3138 318 92" stroke="#042433" stroke-width="2" stroke-miterlimit="8" fill="none" fill-rule="evenodd"/><path d="M189 0.999947 212 12.5 212 42.5 189 53.9999 166 42.5 166 12.5Z" stroke="#042433" stroke-width="2" stroke-miterlimit="8" fill="none" fill-rule="evenodd"/><path d="M199.198 40.6266 188.985 46 173 37.8103 173 16.1897 188.985 8 204.969 16.1897 205 37.7478" stroke="#042433" stroke-width="2" stroke-miterlimit="8" fill="none" fill-rule="evenodd"/><path d="M199.972 48.9999 200 22.0528 188.986 27.3138 178 21.9999" stroke="#042433" stroke-width="2" stroke-miterlimit="8" fill="none" fill-rule="evenodd"/><path d="M50.5001 69.9999 74.0001 81.75 74.0001 112.25 50.5001 124 27.0001 112.25 27.0001 81.75Z" stroke="#042433" stroke-width="2" stroke-miterlimit="8" fill="none" fill-rule="evenodd"/><path d="M61.0166 110.627 50.4843 116 34.0001 107.81 34.0001 86.1896 50.4843 77.9999 66.9686 86.1896 67.0001 107.748" stroke="#042433" stroke-width="2" stroke-miterlimit="8" fill="none" fill-rule="evenodd"/><path d="M60.9734 119 61 92.0528 50.4867 97.3138 40 92" stroke="#042433" stroke-width="2" stroke-miterlimit="8" fill="none" fill-rule="evenodd"/></g></svg>